<?xml version="1.0" standalone="no"?>
<!DOCTYPE svg PUBLIC "-//W3C//DTD SVG 20010904//EN"
 "http://www.w3.org/TR/2001/REC-SVG-20010904/DTD/svg10.dtd">
<svg version="1.0" xmlns="http://www.w3.org/2000/svg"
 width="16.000000pt" height="16.000000pt" viewBox="0 0 16.000000 16.000000"
 preserveAspectRatio="xMidYMid meet">

<g transform="translate(0.000000,16.000000) scale(0.100000,-0.100000)"
fill="#000000" stroke="none">
<path d="M98 113 c7 -3 16 -2 19 1 4 3 -2 6 -13 5 -11 0 -14 -3 -6 -6z"/>
<path d="M52 95 c-16 -9 -20 -15 -12 -20 7 -4 15 -3 19 2 3 6 13 12 21 15 7 2
10 7 5 10 -6 2 -21 -1 -33 -7z"/>
<path d="M106 79 c-37 -20 -49 -20 -88 -4 -14 5 -18 2 -18 -13 0 -12 11 -24
30 -32 26 -11 34 -9 75 14 25 15 45 33 45 41 0 18 3 19 -44 -6z"/>
</g>
</svg>
